<svg width="676" height="560" viewBox="0 0 676 560" fill="none" xmlns="http://www.w3.org/2000/svg">
<g clip-path="url(#clip0_402_7)">
<path d="M675.103 547.902V547.566C675.114 547.416 675.114 547.267 675.103 547.117L345.365 4.59292L344.917 3.92078C344.304 2.97418 343.51 2.15787 342.581 1.51863C341.652 0.879398 340.606 0.429816 339.503 0.195659C338.4 -0.0384979 337.261 -0.0526242 336.153 0.15409C335.044 0.360804 333.987 0.784294 333.043 1.40028C332.035 2.02801 331.16 2.8461 330.466 3.80876L330.018 4.53691C307.912 41.0562 285.657 77.4822 263.253 113.815C261.041 116.996 259.856 120.778 259.856 124.653C259.856 128.528 261.041 132.31 263.253 135.491C292.864 183.661 322.382 231.849 351.806 280.056C354.209 283.497 355.497 287.593 355.497 291.79C355.497 295.987 354.209 300.083 351.806 303.525C303.301 383.285 252.05 467.133 203.097 547.229C202.022 549.252 201.79 551.617 202.451 553.809C203.112 556.002 204.612 557.844 206.625 558.936C207.865 559.602 209.251 559.949 210.658 559.944H352.871C354.433 559.954 355.969 559.537 357.312 558.737C358.654 557.938 359.753 556.786 360.488 555.407L365.361 547.229L431.286 438.904C431.825 437.906 432.557 437.024 433.439 436.311C434.322 435.598 435.337 435.067 436.426 434.75C437.514 434.432 438.656 434.333 439.783 434.46C440.91 434.586 442.001 434.936 442.993 435.487C444.192 436.119 445.213 437.044 445.961 438.176L511.27 544.597L517.319 554.511C518.067 555.863 519.162 556.991 520.491 557.779C521.82 558.567 523.336 558.985 524.881 558.992H528.858C529.529 559.048 530.203 559.048 530.874 558.992H667.093C669.371 558.992 671.557 558.091 673.173 556.485C674.789 554.88 675.704 552.7 675.719 550.422C675.64 549.556 675.433 548.706 675.103 547.902Z" fill="white"/>
<path d="M296.019 308.902L300.78 301.06C302.744 298.242 303.797 294.889 303.797 291.454C303.797 288.019 302.744 284.667 300.78 281.848L271.542 234.463L237.936 180.3C237.345 179.331 236.568 178.488 235.649 177.822C234.731 177.155 233.689 176.678 232.584 176.417C231.479 176.157 230.334 176.118 229.214 176.304C228.094 176.49 227.023 176.896 226.061 177.499C224.769 178.271 223.705 179.373 222.981 180.692L1.00821 547.285C-0.0638758 549.299 -0.294485 551.656 0.366851 553.839C1.02819 556.023 2.5276 557.855 4.53691 558.936C5.77898 559.653 7.19177 560.02 8.62573 560H139.02C140.566 559.999 142.084 559.583 143.414 558.795C144.744 558.007 145.838 556.875 146.581 555.519L151.566 547.229C151.791 546.925 151.997 546.607 152.182 546.277L157.784 537.315C204.217 460.3 248.69 386.757 295.235 310.134C295.523 309.741 295.785 309.329 296.019 308.902Z" fill="white"/>
</g>
<defs>
<clipPath id="clip0_402_7">
<rect width="675.719" height="560" fill="white"/>
</clipPath>
</defs>
</svg>
